<svg xmlns="http://www.w3.org/2000/svg" xmlns:xlink="http://www.w3.org/1999/xlink" width="500" zoomAndPan="magnify" viewBox="0 0 375 374.999991" height="500" preserveAspectRatio="xMidYMid meet" version="1.0"><defs><g/><clipPath id="4bb9b4085f"><path d="M 224.058594 144.195312 L 247 144.195312 L 247 167 L 224.058594 167 Z M 224.058594 144.195312 " clip-rule="nonzero"/></clipPath><clipPath id="03ed7abeed"><path d="M 224.058594 170 L 247 170 L 247 193 L 224.058594 193 Z M 224.058594 170 " clip-rule="nonzero"/></clipPath><clipPath id="ce478f2daf"><path d="M 224.058594 196 L 247 196 L 247 219 L 224.058594 219 Z M 224.058594 196 " clip-rule="nonzero"/></clipPath><clipPath id="68ea0b07aa"><path d="M 224.058594 221 L 247 221 L 247 244.695312 L 224.058594 244.695312 Z M 224.058594 221 " clip-rule="nonzero"/></clipPath><clipPath id="12555e6d82"><path d="M 249 221 L 273 221 L 273 244.695312 L 249 244.695312 Z M 249 221 " clip-rule="nonzero"/></clipPath><clipPath id="7c92d20d51"><path d="M 275 221 L 299 221 L 299 244.695312 L 275 244.695312 Z M 275 221 " clip-rule="nonzero"/></clipPath><clipPath id="b44c858952"><path d="M 301 221 L 324.558594 221 L 324.558594 244.695312 L 301 244.695312 Z M 301 221 " clip-rule="nonzero"/></clipPath></defs><g clip-path="url(#4bb9b4085f)"><path fill="#00a359" d="M 224.058594 144.195312 L 246.667969 144.195312 L 246.667969 166.800781 L 224.058594 166.800781 Z M 224.058594 144.195312 " fill-opacity="1" fill-rule="nonzero"/></g><g clip-path="url(#03ed7abeed)"><path fill="#00a359" d="M 224.058594 170.109375 L 246.667969 170.109375 L 246.667969 192.714844 L 224.058594 192.714844 Z M 224.058594 170.109375 " fill-opacity="1" fill-rule="nonzero"/></g><g clip-path="url(#ce478f2daf)"><path fill="#00a359" d="M 224.058594 196.023438 L 246.667969 196.023438 L 246.667969 218.628906 L 224.058594 218.628906 Z M 224.058594 196.023438 " fill-opacity="1" fill-rule="nonzero"/></g><g clip-path="url(#68ea0b07aa)"><path fill="#00a359" d="M 224.058594 221.9375 L 246.667969 221.9375 L 246.667969 244.542969 L 224.058594 244.542969 Z M 224.058594 221.9375 " fill-opacity="1" fill-rule="nonzero"/></g><path fill="#00b764" d="M 249.972656 170.109375 L 272.582031 170.109375 L 272.582031 192.714844 L 249.972656 192.714844 Z M 249.972656 170.109375 " fill-opacity="1" fill-rule="nonzero"/><path fill="#00b764" d="M 249.972656 196.023438 L 272.582031 196.023438 L 272.582031 218.628906 L 249.972656 218.628906 Z M 249.972656 196.023438 " fill-opacity="1" fill-rule="nonzero"/><g clip-path="url(#12555e6d82)"><path fill="#00b764" d="M 249.972656 221.9375 L 272.582031 221.9375 L 272.582031 244.542969 L 249.972656 244.542969 Z M 249.972656 221.9375 " fill-opacity="1" fill-rule="nonzero"/></g><path fill="#00e17b" d="M 275.886719 196.023438 L 298.492188 196.023438 L 298.492188 218.628906 L 275.886719 218.628906 Z M 275.886719 196.023438 " fill-opacity="1" fill-rule="nonzero"/><g clip-path="url(#7c92d20d51)"><path fill="#00e17b" d="M 275.886719 221.9375 L 298.492188 221.9375 L 298.492188 244.542969 L 275.886719 244.542969 Z M 275.886719 221.9375 " fill-opacity="1" fill-rule="nonzero"/></g><g clip-path="url(#b44c858952)"><path fill="#00ff8b" d="M 301.800781 221.9375 L 324.40625 221.9375 L 324.40625 244.542969 L 301.800781 244.542969 Z M 301.800781 221.9375 " fill-opacity="1" fill-rule="nonzero"/></g><g fill="#ffffff" fill-opacity="1"><g transform="translate(107.147034, 187.830633)"><g><path d="M 9.15625 0 L 2.4375 0 L 2.4375 -42.703125 L 9.15625 -42.703125 L 9.15625 -24.40625 L 16.78125 -24.40625 L 16.78125 -42.703125 L 23.609375 -42.703125 L 23.609375 0 L 16.78125 0 L 16.78125 -18.296875 L 9.15625 -18.296875 Z M 9.15625 0 "/></g></g></g><g fill="#ffffff" fill-opacity="1"><g transform="translate(133.192377, 187.830633)"><g><path d="M 24.15625 0 L 17.390625 0 L 16.21875 -7.75 L 7.984375 -7.75 L 6.828125 0 L 0.671875 0 L 7.5 -42.703125 L 17.328125 -42.703125 Z M 8.84375 -13.546875 L 15.3125 -13.546875 L 12.078125 -35.140625 Z M 8.84375 -13.546875 "/></g></g></g><g fill="#ffffff" fill-opacity="1"><g transform="translate(158.017792, 187.830633)"><g><path d="M 12.5625 -42.703125 C 16.0625 -42.703125 18.59375 -41.882812 20.15625 -40.25 C 21.726562 -38.625 22.515625 -36.164062 22.515625 -32.875 L 22.515625 -31.359375 C 22.515625 -29.160156 22.164062 -27.347656 21.46875 -25.921875 C 20.78125 -24.503906 19.679688 -23.445312 18.171875 -22.75 C 20.003906 -22.0625 21.296875 -20.929688 22.046875 -19.359375 C 22.804688 -17.796875 23.1875 -15.878906 23.1875 -13.609375 L 23.1875 -10.125 C 23.1875 -6.832031 22.332031 -4.320312 20.625 -2.59375 C 18.914062 -0.863281 16.375 0 13 0 L 2.4375 0 L 2.4375 -42.703125 Z M 9.15625 -19.21875 L 9.15625 -6.09375 L 13 -6.09375 C 14.132812 -6.09375 14.992188 -6.398438 15.578125 -7.015625 C 16.171875 -7.628906 16.46875 -8.726562 16.46875 -10.3125 L 16.46875 -14.03125 C 16.46875 -16.019531 16.128906 -17.378906 15.453125 -18.109375 C 14.785156 -18.847656 13.679688 -19.21875 12.140625 -19.21875 Z M 9.15625 -36.59375 L 9.15625 -25.3125 L 11.765625 -25.3125 C 13.023438 -25.3125 14.007812 -25.632812 14.71875 -26.28125 C 15.4375 -26.9375 15.796875 -28.117188 15.796875 -29.828125 L 15.796875 -32.203125 C 15.796875 -33.753906 15.519531 -34.875 14.96875 -35.5625 C 14.425781 -36.25 13.566406 -36.59375 12.390625 -36.59375 Z M 9.15625 -36.59375 "/></g></g></g><g fill="#ffffff" fill-opacity="1"><g transform="translate(182.78221, 187.830633)"><g><path d="M 2.4375 -42.703125 L 9.15625 -42.703125 L 9.15625 0 L 2.4375 0 Z M 2.4375 -42.703125 "/></g></g></g><g fill="#ffffff" fill-opacity="1"><g transform="translate(194.371469, 187.830633)"><g><path d="M 0.484375 -42.703125 L 21.234375 -42.703125 L 21.234375 -36.59375 L 14.21875 -36.59375 L 14.21875 0 L 7.5 0 L 7.5 -36.59375 L 0.484375 -36.59375 Z M 0.484375 -42.703125 "/></g></g></g><g fill="#ffffff" fill-opacity="1"><g transform="translate(49.268131, 238.83063)"><g><path d="M 0.484375 -42.703125 L 21.234375 -42.703125 L 21.234375 -36.59375 L 14.21875 -36.59375 L 14.21875 0 L 7.5 0 L 7.5 -36.59375 L 0.484375 -36.59375 Z M 0.484375 -42.703125 "/></g></g></g><g fill="#ffffff" fill-opacity="1"><g transform="translate(70.982745, 238.83063)"><g><path d="M 16.46875 0 C 16.382812 -0.28125 16.300781 -0.539062 16.21875 -0.78125 C 16.144531 -1.03125 16.078125 -1.335938 16.015625 -1.703125 C 15.953125 -2.066406 15.910156 -2.535156 15.890625 -3.109375 C 15.867188 -3.679688 15.859375 -4.394531 15.859375 -5.25 L 15.859375 -11.953125 C 15.859375 -13.941406 15.507812 -15.34375 14.8125 -16.15625 C 14.125 -16.976562 13.007812 -17.390625 11.46875 -17.390625 L 9.15625 -17.390625 L 9.15625 0 L 2.4375 0 L 2.4375 -42.703125 L 12.5625 -42.703125 C 16.0625 -42.703125 18.59375 -41.882812 20.15625 -40.25 C 21.726562 -38.625 22.515625 -36.164062 22.515625 -32.875 L 22.515625 -29.53125 C 22.515625 -25.132812 21.046875 -22.242188 18.109375 -20.859375 C 19.816406 -20.171875 20.984375 -19.039062 21.609375 -17.46875 C 22.242188 -15.90625 22.5625 -14.003906 22.5625 -11.765625 L 22.5625 -5.1875 C 22.5625 -4.125 22.601562 -3.195312 22.6875 -2.40625 C 22.769531 -1.613281 22.972656 -0.8125 23.296875 0 Z M 9.15625 -36.59375 L 9.15625 -23.484375 L 11.765625 -23.484375 C 13.023438 -23.484375 14.007812 -23.804688 14.71875 -24.453125 C 15.4375 -25.109375 15.796875 -26.289062 15.796875 -28 L 15.796875 -32.203125 C 15.796875 -33.753906 15.519531 -34.875 14.96875 -35.5625 C 14.425781 -36.25 13.566406 -36.59375 12.390625 -36.59375 Z M 9.15625 -36.59375 "/></g></g></g><g fill="#ffffff" fill-opacity="1"><g transform="translate(95.503186, 238.83063)"><g><path d="M 24.15625 0 L 17.390625 0 L 16.21875 -7.75 L 7.984375 -7.75 L 6.828125 0 L 0.671875 0 L 7.5 -42.703125 L 17.328125 -42.703125 Z M 8.84375 -13.546875 L 15.3125 -13.546875 L 12.078125 -35.140625 Z M 8.84375 -13.546875 "/></g></g></g><g fill="#ffffff" fill-opacity="1"><g transform="translate(120.328601, 238.83063)"><g><path d="M 21.90625 -15.921875 L 21.90625 -10.25 C 21.90625 -6.789062 21.0625 -4.132812 19.375 -2.28125 C 17.6875 -0.4375 15.191406 0.484375 11.890625 0.484375 C 8.597656 0.484375 6.109375 -0.4375 4.421875 -2.28125 C 2.734375 -4.132812 1.890625 -6.789062 1.890625 -10.25 L 1.890625 -32.453125 C 1.890625 -35.910156 2.734375 -38.5625 4.421875 -40.40625 C 6.109375 -42.257812 8.597656 -43.1875 11.890625 -43.1875 C 15.191406 -43.1875 17.6875 -42.257812 19.375 -40.40625 C 21.0625 -38.5625 21.90625 -35.910156 21.90625 -32.453125 L 21.90625 -28.296875 L 15.5625 -28.296875 L 15.5625 -32.875 C 15.5625 -34.425781 15.242188 -35.515625 14.609375 -36.140625 C 13.972656 -36.773438 13.128906 -37.09375 12.078125 -37.09375 C 11.015625 -37.09375 10.164062 -36.773438 9.53125 -36.140625 C 8.90625 -35.515625 8.59375 -34.425781 8.59375 -32.875 L 8.59375 -9.828125 C 8.59375 -8.273438 8.90625 -7.191406 9.53125 -6.578125 C 10.164062 -5.972656 11.015625 -5.671875 12.078125 -5.671875 C 13.128906 -5.671875 13.972656 -5.972656 14.609375 -6.578125 C 15.242188 -7.191406 15.5625 -8.273438 15.5625 -9.828125 L 15.5625 -15.921875 Z M 21.90625 -15.921875 "/></g></g></g><g fill="#ffffff" fill-opacity="1"><g transform="translate(143.873102, 238.83063)"><g><path d="M 11.21875 -17.015625 L 9.15625 -13.109375 L 9.15625 0 L 2.4375 0 L 2.4375 -42.703125 L 9.15625 -42.703125 L 9.15625 -24.09375 L 17.9375 -42.703125 L 24.640625 -42.703125 L 15.3125 -23.671875 L 24.640625 0 L 17.75 0 Z M 11.21875 -17.015625 "/></g></g></g><g fill="#ffffff" fill-opacity="1"><g transform="translate(169.125496, 238.83063)"><g><path d="M 9.15625 -24.703125 L 18.359375 -24.703125 L 18.359375 -18.609375 L 9.15625 -18.609375 L 9.15625 -6.09375 L 20.734375 -6.09375 L 20.734375 0 L 2.4375 0 L 2.4375 -42.703125 L 20.734375 -42.703125 L 20.734375 -36.59375 L 9.15625 -36.59375 Z M 9.15625 -24.703125 "/></g></g></g><g fill="#ffffff" fill-opacity="1"><g transform="translate(191.572062, 238.83063)"><g><path d="M 16.46875 0 C 16.382812 -0.28125 16.300781 -0.539062 16.21875 -0.78125 C 16.144531 -1.03125 16.078125 -1.335938 16.015625 -1.703125 C 15.953125 -2.066406 15.910156 -2.535156 15.890625 -3.109375 C 15.867188 -3.679688 15.859375 -4.394531 15.859375 -5.25 L 15.859375 -11.953125 C 15.859375 -13.941406 15.507812 -15.34375 14.8125 -16.15625 C 14.125 -16.976562 13.007812 -17.390625 11.46875 -17.390625 L 9.15625 -17.390625 L 9.15625 0 L 2.4375 0 L 2.4375 -42.703125 L 12.5625 -42.703125 C 16.0625 -42.703125 18.59375 -41.882812 20.15625 -40.25 C 21.726562 -38.625 22.515625 -36.164062 22.515625 -32.875 L 22.515625 -29.53125 C 22.515625 -25.132812 21.046875 -22.242188 18.109375 -20.859375 C 19.816406 -20.171875 20.984375 -19.039062 21.609375 -17.46875 C 22.242188 -15.90625 22.5625 -14.003906 22.5625 -11.765625 L 22.5625 -5.1875 C 22.5625 -4.125 22.601562 -3.195312 22.6875 -2.40625 C 22.769531 -1.613281 22.972656 -0.8125 23.296875 0 Z M 9.15625 -36.59375 L 9.15625 -23.484375 L 11.765625 -23.484375 C 13.023438 -23.484375 14.007812 -23.804688 14.71875 -24.453125 C 15.4375 -25.109375 15.796875 -26.289062 15.796875 -28 L 15.796875 -32.203125 C 15.796875 -33.753906 15.519531 -34.875 14.96875 -35.5625 C 14.425781 -36.25 13.566406 -36.59375 12.390625 -36.59375 Z M 9.15625 -36.59375 "/></g></g></g></svg>